<svg width="1200" height="1200" viewBox="0 0 1200 1200" fill="none" xmlns="http://www.w3.org/2000/svg">
  <rect width="1200" height="1200" fill="#e5e5e5"/>
  <g opacity="0.75">
    <path d="M264 600H936" stroke="#d4d4d4" stroke-width="3"/>
    <path d="M600 264V936" stroke="#d4d4d4" stroke-width="3"/>
    <path d="M352.5 352.5L847.5 847.5" stroke="#d4d4d4" stroke-width="3"/>
    <path d="M847.5 352.5L352.5 847.5" stroke="#d4d4d4" stroke-width="3"/>
    <circle cx="600" cy="600" r="160" stroke="#d4d4d4" stroke-width="3"/>
    <circle cx="600" cy="600" r="64" fill="#f5f5f5" stroke="#c7c7c7" stroke-width="3"/>
  </g>
  <path d="M579 624H625C630.523 624 635 619.523 635 614V580C635 574.477 630.523 570 625 570H575C569.477 570 565 574.477 565 580V614C565 619.523 569.477 624 575 624H579ZM575 617L588.5 603.5C591.062 600.938 595.188 600.875 597.827 603.358L602.5 607.75L613.5 596.75C616.124 594.126 620.376 594.126 623 596.75L628 601.75V614C628 615.657 626.657 617 625 617H575ZM572 580C572 578.343 573.343 577 575 577H625C626.657 577 628 578.343 628 580V591.849L627.95 591.799C622.591 586.44 613.909 586.44 608.55 591.799L602.331 598.018C596.934 593.648 588.985 593.985 583.55 599.42L572 610.97V580Z" fill="#9f9f9f"/>
</svg>
